<mxfile host="app.diagrams.net" modified="2023-06-01T17:52:12.943Z" agent="Mozilla/5.0 (Windows NT 10.0; Win64; x64) AppleWebKit/537.36 (KHTML, like Gecko) Chrome/113.0.0.0 Safari/537.36" etag="AQiF8fUemJybkwBeFHRL" version="21.3.2" type="device">
  <diagram name="Page-1" id="2Ld5QdkTXTeEmQXoJcOk">
    <mxGraphModel dx="744" dy="399" grid="1" gridSize="10" guides="1" tooltips="1" connect="1" arrows="1" fold="1" page="1" pageScale="1" pageWidth="850" pageHeight="1100" math="0" shadow="0">
      <root>
        <mxCell id="0" />
        <mxCell id="1" parent="0" />
        <mxCell id="aA0TOWSNcW_J7s2soMP9-10" style="edgeStyle=orthogonalEdgeStyle;rounded=0;orthogonalLoop=1;jettySize=auto;html=1;exitX=1;exitY=0.5;exitDx=0;exitDy=0;entryX=0;entryY=0.5;entryDx=0;entryDy=0;" edge="1" parent="1" source="aA0TOWSNcW_J7s2soMP9-2" target="aA0TOWSNcW_J7s2soMP9-7">
          <mxGeometry relative="1" as="geometry" />
        </mxCell>
        <mxCell id="aA0TOWSNcW_J7s2soMP9-14" style="edgeStyle=orthogonalEdgeStyle;rounded=0;orthogonalLoop=1;jettySize=auto;html=1;exitX=1;exitY=0.75;exitDx=0;exitDy=0;entryX=0;entryY=0.5;entryDx=0;entryDy=0;" edge="1" parent="1" source="aA0TOWSNcW_J7s2soMP9-2" target="aA0TOWSNcW_J7s2soMP9-11">
          <mxGeometry relative="1" as="geometry">
            <Array as="points">
              <mxPoint x="180" y="170" />
              <mxPoint x="235" y="170" />
              <mxPoint x="235" y="315" />
            </Array>
          </mxGeometry>
        </mxCell>
        <mxCell id="aA0TOWSNcW_J7s2soMP9-35" style="edgeStyle=orthogonalEdgeStyle;rounded=0;orthogonalLoop=1;jettySize=auto;html=1;exitX=0.5;exitY=1;exitDx=0;exitDy=0;entryX=0.5;entryY=0;entryDx=0;entryDy=0;" edge="1" parent="1" source="aA0TOWSNcW_J7s2soMP9-2" target="aA0TOWSNcW_J7s2soMP9-18">
          <mxGeometry relative="1" as="geometry" />
        </mxCell>
        <mxCell id="aA0TOWSNcW_J7s2soMP9-2" value="" style="rounded=0;whiteSpace=wrap;html=1;" vertex="1" parent="1">
          <mxGeometry x="90" y="70" width="90" height="110" as="geometry" />
        </mxCell>
        <mxCell id="aA0TOWSNcW_J7s2soMP9-3" value="Vehicul" style="text;html=1;strokeColor=none;fillColor=none;align=center;verticalAlign=middle;whiteSpace=wrap;rounded=0;" vertex="1" parent="1">
          <mxGeometry x="105" y="70" width="60" height="30" as="geometry" />
        </mxCell>
        <mxCell id="aA0TOWSNcW_J7s2soMP9-4" value="name&lt;br&gt;speed&lt;br&gt;year&lt;br&gt;capacity" style="text;html=1;strokeColor=none;fillColor=none;align=center;verticalAlign=middle;whiteSpace=wrap;rounded=0;" vertex="1" parent="1">
          <mxGeometry x="105" y="120" width="60" height="30" as="geometry" />
        </mxCell>
        <mxCell id="aA0TOWSNcW_J7s2soMP9-7" value="" style="rounded=0;whiteSpace=wrap;html=1;" vertex="1" parent="1">
          <mxGeometry x="290" y="80" width="120" height="140" as="geometry" />
        </mxCell>
        <mxCell id="aA0TOWSNcW_J7s2soMP9-8" value="Humvee" style="text;html=1;strokeColor=none;fillColor=none;align=center;verticalAlign=middle;whiteSpace=wrap;rounded=0;" vertex="1" parent="1">
          <mxGeometry x="320" y="80" width="60" height="30" as="geometry" />
        </mxCell>
        <mxCell id="aA0TOWSNcW_J7s2soMP9-9" value="storage&lt;br&gt;occupied_storage&lt;br&gt;bulletproof&lt;br&gt;weaponized" style="text;html=1;strokeColor=none;fillColor=none;align=center;verticalAlign=middle;whiteSpace=wrap;rounded=0;" vertex="1" parent="1">
          <mxGeometry x="295" y="120" width="110" height="40" as="geometry" />
        </mxCell>
        <mxCell id="aA0TOWSNcW_J7s2soMP9-11" value="" style="rounded=0;whiteSpace=wrap;html=1;" vertex="1" parent="1">
          <mxGeometry x="290" y="250" width="120" height="130" as="geometry" />
        </mxCell>
        <mxCell id="aA0TOWSNcW_J7s2soMP9-12" value="Tank" style="text;html=1;strokeColor=none;fillColor=none;align=center;verticalAlign=middle;whiteSpace=wrap;rounded=0;" vertex="1" parent="1">
          <mxGeometry x="320" y="250" width="60" height="30" as="geometry" />
        </mxCell>
        <mxCell id="aA0TOWSNcW_J7s2soMP9-13" value="ammunition&lt;br&gt;armor&lt;br&gt;power" style="text;html=1;strokeColor=none;fillColor=none;align=center;verticalAlign=middle;whiteSpace=wrap;rounded=0;" vertex="1" parent="1">
          <mxGeometry x="297.5" y="290" width="105" height="30" as="geometry" />
        </mxCell>
        <mxCell id="aA0TOWSNcW_J7s2soMP9-15" value="Shoot()&lt;br&gt;Repair()&lt;br&gt;Damage()" style="text;html=1;strokeColor=none;fillColor=none;align=center;verticalAlign=middle;whiteSpace=wrap;rounded=0;" vertex="1" parent="1">
          <mxGeometry x="297.5" y="340" width="105" height="30" as="geometry" />
        </mxCell>
        <mxCell id="aA0TOWSNcW_J7s2soMP9-16" value="AddStorage()&lt;br&gt;RemoveStorage()" style="text;html=1;strokeColor=none;fillColor=none;align=center;verticalAlign=middle;whiteSpace=wrap;rounded=0;" vertex="1" parent="1">
          <mxGeometry x="303.75" y="180" width="92.5" height="30" as="geometry" />
        </mxCell>
        <mxCell id="aA0TOWSNcW_J7s2soMP9-17" value="" style="rounded=0;whiteSpace=wrap;html=1;" vertex="1" parent="1">
          <mxGeometry x="45" y="280" width="120" height="110" as="geometry" />
        </mxCell>
        <mxCell id="aA0TOWSNcW_J7s2soMP9-18" value="Depot" style="text;html=1;strokeColor=none;fillColor=none;align=center;verticalAlign=middle;whiteSpace=wrap;rounded=0;" vertex="1" parent="1">
          <mxGeometry x="75" y="280" width="60" height="30" as="geometry" />
        </mxCell>
        <mxCell id="aA0TOWSNcW_J7s2soMP9-19" value="VList&lt;br&gt;capacity" style="text;html=1;strokeColor=none;fillColor=none;align=center;verticalAlign=middle;whiteSpace=wrap;rounded=0;" vertex="1" parent="1">
          <mxGeometry x="75" y="310" width="60" height="30" as="geometry" />
        </mxCell>
        <mxCell id="aA0TOWSNcW_J7s2soMP9-20" value="addVehicle()" style="text;html=1;strokeColor=none;fillColor=none;align=center;verticalAlign=middle;whiteSpace=wrap;rounded=0;" vertex="1" parent="1">
          <mxGeometry x="65" y="350" width="80" height="30" as="geometry" />
        </mxCell>
        <mxCell id="aA0TOWSNcW_J7s2soMP9-21" style="edgeStyle=orthogonalEdgeStyle;rounded=0;orthogonalLoop=1;jettySize=auto;html=1;exitX=0.5;exitY=1;exitDx=0;exitDy=0;" edge="1" parent="1" source="aA0TOWSNcW_J7s2soMP9-17" target="aA0TOWSNcW_J7s2soMP9-17">
          <mxGeometry relative="1" as="geometry" />
        </mxCell>
        <mxCell id="aA0TOWSNcW_J7s2soMP9-23" value="" style="endArrow=none;html=1;rounded=0;entryX=1;entryY=0.25;entryDx=0;entryDy=0;exitX=0;exitY=0.25;exitDx=0;exitDy=0;" edge="1" parent="1" source="aA0TOWSNcW_J7s2soMP9-11" target="aA0TOWSNcW_J7s2soMP9-11">
          <mxGeometry width="50" height="50" relative="1" as="geometry">
            <mxPoint x="320" y="320" as="sourcePoint" />
            <mxPoint x="370" y="270" as="targetPoint" />
            <Array as="points" />
          </mxGeometry>
        </mxCell>
        <mxCell id="aA0TOWSNcW_J7s2soMP9-24" value="" style="endArrow=none;html=1;rounded=0;entryX=0.999;entryY=0.63;entryDx=0;entryDy=0;entryPerimeter=0;exitX=-0.004;exitY=0.63;exitDx=0;exitDy=0;exitPerimeter=0;" edge="1" parent="1" source="aA0TOWSNcW_J7s2soMP9-11" target="aA0TOWSNcW_J7s2soMP9-11">
          <mxGeometry width="50" height="50" relative="1" as="geometry">
            <mxPoint x="340" y="280" as="sourcePoint" />
            <mxPoint x="390" y="230" as="targetPoint" />
          </mxGeometry>
        </mxCell>
        <mxCell id="aA0TOWSNcW_J7s2soMP9-25" value="" style="endArrow=none;html=1;rounded=0;entryX=1.002;entryY=0.202;entryDx=0;entryDy=0;entryPerimeter=0;exitX=0.002;exitY=0.202;exitDx=0;exitDy=0;exitPerimeter=0;" edge="1" parent="1" source="aA0TOWSNcW_J7s2soMP9-7" target="aA0TOWSNcW_J7s2soMP9-7">
          <mxGeometry width="50" height="50" relative="1" as="geometry">
            <mxPoint x="340" y="280" as="sourcePoint" />
            <mxPoint x="390" y="230" as="targetPoint" />
          </mxGeometry>
        </mxCell>
        <mxCell id="aA0TOWSNcW_J7s2soMP9-26" value="" style="endArrow=none;html=1;rounded=0;entryX=0.996;entryY=0.675;entryDx=0;entryDy=0;entryPerimeter=0;exitX=-0.004;exitY=0.678;exitDx=0;exitDy=0;exitPerimeter=0;" edge="1" parent="1" source="aA0TOWSNcW_J7s2soMP9-7" target="aA0TOWSNcW_J7s2soMP9-7">
          <mxGeometry width="50" height="50" relative="1" as="geometry">
            <mxPoint x="340" y="230" as="sourcePoint" />
            <mxPoint x="390" y="180" as="targetPoint" />
          </mxGeometry>
        </mxCell>
        <mxCell id="aA0TOWSNcW_J7s2soMP9-27" value="" style="endArrow=none;html=1;rounded=0;entryX=1;entryY=0.25;entryDx=0;entryDy=0;exitX=0;exitY=0.25;exitDx=0;exitDy=0;" edge="1" parent="1" source="aA0TOWSNcW_J7s2soMP9-2" target="aA0TOWSNcW_J7s2soMP9-2">
          <mxGeometry width="50" height="50" relative="1" as="geometry">
            <mxPoint x="340" y="230" as="sourcePoint" />
            <mxPoint x="390" y="180" as="targetPoint" />
          </mxGeometry>
        </mxCell>
        <mxCell id="aA0TOWSNcW_J7s2soMP9-28" value="" style="endArrow=none;html=1;rounded=0;entryX=1;entryY=0.25;entryDx=0;entryDy=0;exitX=0;exitY=0.25;exitDx=0;exitDy=0;" edge="1" parent="1" source="aA0TOWSNcW_J7s2soMP9-17" target="aA0TOWSNcW_J7s2soMP9-17">
          <mxGeometry width="50" height="50" relative="1" as="geometry">
            <mxPoint x="340" y="280" as="sourcePoint" />
            <mxPoint x="390" y="230" as="targetPoint" />
          </mxGeometry>
        </mxCell>
        <mxCell id="aA0TOWSNcW_J7s2soMP9-29" value="" style="endArrow=none;html=1;rounded=0;exitX=0;exitY=0.662;exitDx=0;exitDy=0;exitPerimeter=0;entryX=0.996;entryY=0.655;entryDx=0;entryDy=0;entryPerimeter=0;" edge="1" parent="1" source="aA0TOWSNcW_J7s2soMP9-17" target="aA0TOWSNcW_J7s2soMP9-17">
          <mxGeometry width="50" height="50" relative="1" as="geometry">
            <mxPoint x="340" y="280" as="sourcePoint" />
            <mxPoint x="390" y="230" as="targetPoint" />
          </mxGeometry>
        </mxCell>
        <mxCell id="aA0TOWSNcW_J7s2soMP9-30" value="" style="rounded=0;whiteSpace=wrap;html=1;" vertex="1" parent="1">
          <mxGeometry x="480" y="105" width="90" height="85" as="geometry" />
        </mxCell>
        <mxCell id="aA0TOWSNcW_J7s2soMP9-31" value="GenerareID" style="text;html=1;strokeColor=none;fillColor=none;align=center;verticalAlign=middle;whiteSpace=wrap;rounded=0;" vertex="1" parent="1">
          <mxGeometry x="495" y="105" width="60" height="30" as="geometry" />
        </mxCell>
        <mxCell id="aA0TOWSNcW_J7s2soMP9-32" value="nextID&lt;br&gt;&lt;br&gt;getID()" style="text;html=1;strokeColor=none;fillColor=none;align=center;verticalAlign=middle;whiteSpace=wrap;rounded=0;" vertex="1" parent="1">
          <mxGeometry x="492.5" y="135" width="65" height="50" as="geometry" />
        </mxCell>
        <mxCell id="aA0TOWSNcW_J7s2soMP9-33" value="" style="endArrow=none;html=1;rounded=0;entryX=0.999;entryY=0.637;entryDx=0;entryDy=0;exitX=0;exitY=0.637;exitDx=0;exitDy=0;exitPerimeter=0;entryPerimeter=0;" edge="1" parent="1" source="aA0TOWSNcW_J7s2soMP9-30" target="aA0TOWSNcW_J7s2soMP9-30">
          <mxGeometry width="50" height="50" relative="1" as="geometry">
            <mxPoint x="340" y="280" as="sourcePoint" />
            <mxPoint x="390" y="230" as="targetPoint" />
          </mxGeometry>
        </mxCell>
        <mxCell id="aA0TOWSNcW_J7s2soMP9-34" value="" style="endArrow=none;html=1;rounded=0;entryX=0.999;entryY=0.325;entryDx=0;entryDy=0;exitX=0.004;exitY=0.325;exitDx=0;exitDy=0;exitPerimeter=0;entryPerimeter=0;" edge="1" parent="1" source="aA0TOWSNcW_J7s2soMP9-30" target="aA0TOWSNcW_J7s2soMP9-30">
          <mxGeometry width="50" height="50" relative="1" as="geometry">
            <mxPoint x="340" y="280" as="sourcePoint" />
            <mxPoint x="390" y="230" as="targetPoint" />
          </mxGeometry>
        </mxCell>
      </root>
    </mxGraphModel>
  </diagram>
</mxfile>
